TITLE ""
FILE "P1Q_t_0239-0248.mp3" MP3
  TRACK 01 AUDIO
    TITLE "P1Q_t_0239-0248_01"
    INDEX 01 00:00:00
  TRACK 02 AUDIO
    TITLE "P1Q_t_0239-0248_02"
    INDEX 01 00:01:33
  TRACK 03 AUDIO
    TITLE "P1Q_t_0239-0248_03"
    INDEX 01 00:01:53
  TRACK 04 AUDIO
    TITLE "P1Q_t_0239-0248_04"
    INDEX 01 00:03:07
  TRACK 05 AUDIO
    TITLE "P1Q_t_0239-0248_05"
    INDEX 01 00:03:26
  TRACK 06 AUDIO
    TITLE "P1Q_t_0239-0248_06"
    INDEX 01 00:08:20
  TRACK 07 AUDIO
    TITLE "P1Q_t_0239-0248_07"
    INDEX 01 00:08:65
  TRACK 08 AUDIO
    TITLE "P1Q_t_0239-0248_08"
    INDEX 01 00:10:01
  TRACK 09 AUDIO
    TITLE "P1Q_t_0239-0248_09"
    INDEX 01 00:10:22
  TRACK 10 AUDIO
    TITLE "P1Q_t_0239-0248_10"
    INDEX 01 00:14:61
  TRACK 11 AUDIO
    TITLE "P1Q_t_0239-0248_11"
    INDEX 01 00:15:08
  TRACK 12 AUDIO
    TITLE "P1Q_t_0239-0248_12"
    INDEX 01 00:19:37
  TRACK 13 AUDIO
    TITLE "P1Q_t_0239-0248_13"
    INDEX 01 00:20:11
  TRACK 14 AUDIO
    TITLE "P1Q_t_0239-0248_14"
    INDEX 01 00:21:40
  TRACK 15 AUDIO
    TITLE "P1Q_t_0239-0248_15"
    INDEX 01 00:21:63
  TRACK 16 AUDIO
    TITLE "P1Q_t_0239-0248_16"
    INDEX 01 00:24:70
  TRACK 17 AUDIO
    TITLE "P1Q_t_0239-0248_17"
    INDEX 01 00:25:14
  TRACK 18 AUDIO
    TITLE "P1Q_t_0239-0248_18"
    INDEX 01 00:29:65
  TRACK 19 AUDIO
    TITLE "P1Q_t_0239-0248_19"
    INDEX 01 00:30:35
  TRACK 20 AUDIO
    TITLE "P1Q_t_0239-0248_20"
    INDEX 01 00:31:44
  TRACK 21 AUDIO
    TITLE "P1Q_t_0239-0248_21"
    INDEX 01 00:31:68
  TRACK 22 AUDIO
    TITLE "P1Q_t_0239-0248_22"
    INDEX 01 00:33:65
  TRACK 23 AUDIO
    TITLE "P1Q_t_0239-0248_23"
    INDEX 01 00:34:09
  TRACK 24 AUDIO
    TITLE "P1Q_t_0239-0248_24"
    INDEX 01 00:38:32
  TRACK 25 AUDIO
    TITLE "P1Q_t_0239-0248_25"
    INDEX 01 00:39:04
  TRACK 26 AUDIO
    TITLE "P1Q_t_0239-0248_26"
    INDEX 01 00:40:12
  TRACK 27 AUDIO
    TITLE "P1Q_t_0239-0248_27"
    INDEX 01 00:40:33
  TRACK 28 AUDIO
    TITLE "P1Q_t_0239-0248_28"
    INDEX 01 00:42:32
  TRACK 29 AUDIO
    TITLE "P1Q_t_0239-0248_29"
    INDEX 01 00:42:54
  TRACK 30 AUDIO
    TITLE "P1Q_t_0239-0248_30"
    INDEX 01 00:46:69
  TRACK 31 AUDIO
    TITLE "P1Q_t_0239-0248_31"
    INDEX 01 00:47:39
  TRACK 32 AUDIO
    TITLE "P1Q_t_0239-0248_32"
    INDEX 01 00:48:50
  TRACK 33 AUDIO
    TITLE "P1Q_t_0239-0248_33"
    INDEX 01 00:48:70
  TRACK 34 AUDIO
    TITLE "P1Q_t_0239-0248_34"
    INDEX 01 00:51:21
  TRACK 35 AUDIO
    TITLE "P1Q_t_0239-0248_35"
    INDEX 01 00:51:39
  TRACK 36 AUDIO
    TITLE "P1Q_t_0239-0248_36"
    INDEX 01 00:56:21
  TRACK 37 AUDIO
    TITLE "P1Q_t_0239-0248_37"
    INDEX 01 00:56:68
  TRACK 38 AUDIO
    TITLE "P1Q_t_0239-0248_38"
    INDEX 01 00:58:04
  TRACK 39 AUDIO
    TITLE "P1Q_t_0239-0248_39"
    INDEX 01 00:58:25
  TRACK 40 AUDIO
    TITLE "P1Q_t_0239-0248_40"
    INDEX 01 01:00:73
  TRACK 41 AUDIO
    TITLE "P1Q_t_0239-0248_41"
    INDEX 01 01:01:18
  TRACK 42 AUDIO
    TITLE "P1Q_t_0239-0248_42"
    INDEX 01 01:06:37
  TRACK 43 AUDIO
    TITLE "P1Q_t_0239-0248_43"
    INDEX 01 01:07:07
  TRACK 44 AUDIO
    TITLE "P1Q_t_0239-0248_44"
    INDEX 01 01:08:12
  TRACK 45 AUDIO
    TITLE "P1Q_t_0239-0248_45"
    INDEX 01 01:08:32
  TRACK 46 AUDIO
    TITLE "P1Q_t_0239-0248_46"
    INDEX 01 01:10:68
  TRACK 47 AUDIO
    TITLE "P1Q_t_0239-0248_47"
    INDEX 01 01:11:10
  TRACK 48 AUDIO
    TITLE "P1Q_t_0239-0248_48"
    INDEX 01 01:16:70
  TRACK 49 AUDIO
    TITLE "P1Q_t_0239-0248_49"
    INDEX 01 01:17:38
  TRACK 50 AUDIO
    TITLE "P1Q_t_0239-0248_50"
    INDEX 01 01:18:75
  TRACK 51 AUDIO
    TITLE "P1Q_t_0239-0248_51"
    INDEX 01 01:19:20
  TRACK 52 AUDIO
    TITLE "P1Q_t_0239-0248_52"
    INDEX 01 01:20:49
  TRACK 53 AUDIO
    TITLE "P1Q_t_0239-0248_53"
    INDEX 01 01:20:68
  TRACK 54 AUDIO
    TITLE "P1Q_t_0239-0248_54"
    INDEX 01 01:25:34
  TRACK 55 AUDIO
    TITLE "P1Q_t_0239-0248_55"
    INDEX 01 01:26:04
  TRACK 56 AUDIO
    TITLE "P1Q_t_0239-0248_56"
    INDEX 01 01:27:09
  TRACK 57 AUDIO
    TITLE "P1Q_t_0239-0248_57"
    INDEX 01 01:27:31
  TRACK 58 AUDIO
    TITLE "P1Q_t_0239-0248_58"
    INDEX 01 01:29:51
  TRACK 59 AUDIO
    TITLE "P1Q_t_0239-0248_59"
    INDEX 01 01:29:71
  TRACK 60 AUDIO
    TITLE "P1Q_t_0239-0248_60"
    INDEX 01 01:35:32
